<svg width="20" height="20" viewBox="0 0 20 20" fill="none" xmlns="http://www.w3.org/2000/svg">
<path fill-rule="evenodd" clip-rule="evenodd" d="M3.16323 20H16.8595C17.3829 20 17.8191 19.9127 18.3425 19.6507C18.9532 19.3886 19.3021 18.952 19.4766 18.6026C19.4766 18.6026 19.4766 18.5153 19.5638 18.5153C19.8255 18.0786 20 17.5546 20 16.9432C20 16.4192 19.9128 15.8952 19.5638 15.3712L10.9273 0.524017C10.7529 0.174673 10.4039 0 9.96773 0C9.61878 0 9.26983 0.174673 9.00812 0.524017L0.546116 15.3712C0.371642 15.7205 0.022693 16.1572 0.022693 16.8559C-0.0645442 17.4672 0.10993 17.9913 0.371641 18.5153C0.633353 19.0393 1.06954 19.476 1.6802 19.6507C2.20362 20 2.81428 20 3.16323 20ZM8.92088 17.9039H3.16323C2.81428 17.9039 2.63981 17.9039 2.55257 17.8166C2.3781 17.7293 2.29086 17.6419 2.20362 17.4672C2.11638 17.3799 2.11638 17.2052 2.11638 17.0306C2.11638 16.9432 2.20362 16.8559 2.3781 16.5066L8.92088 5.15284V17.9039ZM11.0146 17.9039V5.0655L17.6446 16.5066C17.7318 16.6812 17.7318 16.8559 17.7318 17.0306C17.7318 17.2052 17.7318 17.3799 17.6446 17.4672C17.5574 17.5546 17.5574 17.6419 17.4701 17.6419L17.3829 17.7293C17.2084 17.8166 17.0339 17.8166 16.7722 17.8166H11.0146V17.9039Z" fill="white"/>
</svg>
