<svg width="41" height="37" viewBox="0 0 41 37" fill="none" xmlns="http://www.w3.org/2000/svg">
<path fill-rule="evenodd" clip-rule="evenodd" d="M38.4375 13.2143V17.1786C39.8526 17.1786 41 18.3617 41 19.8214V27.75C41 29.2097 39.8526 30.3929 38.4375 30.3929V34.3571C38.4375 35.8168 37.2901 37 35.875 37H5.125C2.29472 37 0 34.6335 0 31.7143V7.92857C0 3.55654 3.44832 0 7.6875 0H35.875C37.2901 0 38.4375 1.18334 38.4375 2.64286C38.4375 4.10238 37.2901 5.28571 35.875 5.28571H7.6875C6.27428 5.28571 5.125 6.47104 5.125 7.92857C5.125 9.38611 6.27428 10.5714 7.6875 10.5714H35.875C37.2901 10.5714 38.4375 11.7546 38.4375 13.2143ZM32.0312 23.7857C32.0312 25.2454 33.1786 26.4286 34.5938 26.4286C36.0089 26.4286 37.1562 25.2454 37.1562 23.7857C37.1562 22.326 36.0089 21.1429 34.5938 21.1429C33.1786 21.1429 32.0312 22.326 32.0312 23.7857ZM12.6507 24.6579C12.1831 25.1268 12.1831 25.8846 12.6507 26.3534L16.5886 30.302C17.0513 30.766 17.66 30.9998 18.2687 31.0022L18.2795 31.0046L18.2902 31.0022C18.8989 30.9998 19.5076 30.766 19.9704 30.302L23.9083 26.3534C24.3758 25.8846 24.3758 25.1268 23.9083 24.6579C23.4407 24.1891 22.6849 24.1891 22.2173 24.6579L19.4753 27.4074L19.4753 19.0139C19.4753 18.3508 18.9408 17.8148 18.2795 17.8148C17.6182 17.8148 17.0836 18.3508 17.0836 19.0139L17.0836 27.4074L14.3416 24.6579C13.874 24.1891 13.1182 24.1891 12.6507 24.6579ZM5.62697 21.1217C5.41323 20.9025 5.41323 20.5482 5.62697 20.329C5.84071 20.1098 6.18618 20.1098 6.39992 20.329L7.65336 21.6145L7.65336 17.6902C7.65336 17.3802 7.89771 17.1296 8.2 17.1296C8.50229 17.1296 8.74664 17.3802 8.74664 17.6902V21.6145L10.0001 20.329C10.2138 20.1098 10.5593 20.1098 10.773 20.329C10.9868 20.5482 10.9868 20.9025 10.773 21.1217L8.97295 22.9678C8.7614 23.1847 8.48316 23.2941 8.20492 23.2952L8.2 23.2963L8.19508 23.2952C7.91684 23.2941 7.6386 23.1847 7.42705 22.9678L5.62697 21.1217ZM25.4436 20.329C25.2299 20.5482 25.2299 20.9025 25.4436 21.1217L27.2437 22.9678C27.4553 23.1847 27.7335 23.2941 28.0117 23.2952L28.0167 23.2963L28.0216 23.2952C28.2998 23.2941 28.5781 23.1847 28.7896 22.9678L30.5897 21.1217C30.8034 20.9025 30.8034 20.5482 30.5897 20.329C30.376 20.1098 30.0305 20.1098 29.8167 20.329L28.5633 21.6145L28.5633 17.6902C28.5633 17.3802 28.319 17.1296 28.0167 17.1296C27.7144 17.1296 27.47 17.3802 27.47 17.6902V21.6145L26.2166 20.329C26.0028 20.1098 25.6574 20.1098 25.4436 20.329Z" fill="black"/>
<path fill-rule="evenodd" clip-rule="evenodd" d="M38.4375 13.2143V17.1786C39.8526 17.1786 41 18.3617 41 19.8214V27.75C41 29.2097 39.8526 30.3929 38.4375 30.3929V34.3571C38.4375 35.8168 37.2901 37 35.875 37H5.125C2.29472 37 0 34.6335 0 31.7143V7.92857C0 3.55654 3.44832 0 7.6875 0H35.875C37.2901 0 38.4375 1.18334 38.4375 2.64286C38.4375 4.10238 37.2901 5.28571 35.875 5.28571H7.6875C6.27428 5.28571 5.125 6.47104 5.125 7.92857C5.125 9.38611 6.27428 10.5714 7.6875 10.5714H35.875C37.2901 10.5714 38.4375 11.7546 38.4375 13.2143ZM32.0312 23.7857C32.0312 25.2454 33.1786 26.4286 34.5938 26.4286C36.0089 26.4286 37.1562 25.2454 37.1562 23.7857C37.1562 22.326 36.0089 21.1429 34.5938 21.1429C33.1786 21.1429 32.0312 22.326 32.0312 23.7857ZM12.6507 24.6579C12.1831 25.1268 12.1831 25.8846 12.6507 26.3534L16.5886 30.302C17.0513 30.766 17.66 30.9998 18.2687 31.0022L18.2795 31.0046L18.2902 31.0022C18.8989 30.9998 19.5076 30.766 19.9704 30.302L23.9083 26.3534C24.3758 25.8846 24.3758 25.1268 23.9083 24.6579C23.4407 24.1891 22.6849 24.1891 22.2173 24.6579L19.4753 27.4074L19.4753 19.0139C19.4753 18.3508 18.9408 17.8148 18.2795 17.8148C17.6182 17.8148 17.0836 18.3508 17.0836 19.0139L17.0836 27.4074L14.3416 24.6579C13.874 24.1891 13.1182 24.1891 12.6507 24.6579ZM5.62697 21.1217C5.41323 20.9025 5.41323 20.5482 5.62697 20.329C5.84071 20.1098 6.18618 20.1098 6.39992 20.329L7.65336 21.6145L7.65336 17.6902C7.65336 17.3802 7.89771 17.1296 8.2 17.1296C8.50229 17.1296 8.74664 17.3802 8.74664 17.6902V21.6145L10.0001 20.329C10.2138 20.1098 10.5593 20.1098 10.773 20.329C10.9868 20.5482 10.9868 20.9025 10.773 21.1217L8.97295 22.9678C8.7614 23.1847 8.48316 23.2941 8.20492 23.2952L8.2 23.2963L8.19508 23.2952C7.91684 23.2941 7.6386 23.1847 7.42705 22.9678L5.62697 21.1217ZM25.4436 20.329C25.2299 20.5482 25.2299 20.9025 25.4436 21.1217L27.2437 22.9678C27.4553 23.1847 27.7335 23.2941 28.0117 23.2952L28.0167 23.2963L28.0216 23.2952C28.2998 23.2941 28.5781 23.1847 28.7896 22.9678L30.5897 21.1217C30.8034 20.9025 30.8034 20.5482 30.5897 20.329C30.376 20.1098 30.0305 20.1098 29.8167 20.329L28.5633 21.6145L28.5633 17.6902C28.5633 17.3802 28.319 17.1296 28.0167 17.1296C27.7144 17.1296 27.47 17.3802 27.47 17.6902V21.6145L26.2166 20.329C26.0028 20.1098 25.6574 20.1098 25.4436 20.329Z" fill="url(#paint0_linear_19_655)"/>
<defs>
<linearGradient id="paint0_linear_19_655" x1="-0.819998" y1="48.47" x2="35.2618" y2="-12.2877" gradientUnits="userSpaceOnUse">
<stop stop-color="#FBEDD1"/>
<stop offset="0.577716" stop-color="#F7A300"/>
<stop offset="1" stop-color="#F96800"/>
</linearGradient>
</defs>
</svg>
