<svg width="41" height="41" viewBox="0 0 41 41" fill="none" xmlns="http://www.w3.org/2000/svg">
<path d="M40.3869 22.3356H35.5504C33.1319 22.3356 33.094 18.6648 35.6023 18.6648H40.3869C40.7534 18.6648 41.0398 18.3443 40.9953 17.9805C39.8495 8.60454 32.3956 1.1505 23.0196 0.00472944C22.6559 -0.0396625 22.3354 0.24662 22.3354 0.613262V5.39763C22.3354 7.90287 18.6645 7.86972 18.6645 5.44954V0.613081C18.6645 0.246439 18.3441 -0.0398436 17.9803 0.00454835C8.60425 1.1504 1.1504 8.60436 0.00454839 17.9803C-0.0398435 18.3441 0.246439 18.6646 0.612898 18.6646H5.39753C7.90286 18.6646 7.86961 22.3354 5.44944 22.3354H0.612989C0.246529 22.3354 -0.0399341 22.6559 0.00463894 23.0197C1.1504 32.3956 8.60443 39.8496 17.9804 40.9955C18.3442 41.0398 18.6646 40.7536 18.6646 40.3869V35.6023C18.6646 33.097 22.3355 33.13 22.3355 35.5504V40.3869C22.3355 40.7536 22.6559 41.0398 23.0197 40.9955C32.3957 39.8497 39.8496 32.3956 40.9955 23.0197C41.0398 22.656 40.7536 22.3356 40.3869 22.3356ZM28.6625 14.933L23.3747 20.2209C23.5386 21.9307 22.1953 23.3884 20.5 23.3884C18.9048 23.3884 17.6116 22.0952 17.6116 20.5C17.6116 18.8051 19.0691 17.4613 20.7791 17.6253L26.0669 12.3375C27.7816 10.6227 30.3799 13.216 28.6625 14.933Z" fill="black"/>
<path d="M40.3869 22.3356H35.5504C33.1319 22.3356 33.094 18.6648 35.6023 18.6648H40.3869C40.7534 18.6648 41.0398 18.3443 40.9953 17.9805C39.8495 8.60454 32.3956 1.1505 23.0196 0.00472944C22.6559 -0.0396625 22.3354 0.24662 22.3354 0.613262V5.39763C22.3354 7.90287 18.6645 7.86972 18.6645 5.44954V0.613081C18.6645 0.246439 18.3441 -0.0398436 17.9803 0.00454835C8.60425 1.1504 1.1504 8.60436 0.00454839 17.9803C-0.0398435 18.3441 0.246439 18.6646 0.612898 18.6646H5.39753C7.90286 18.6646 7.86961 22.3354 5.44944 22.3354H0.612989C0.246529 22.3354 -0.0399341 22.6559 0.00463894 23.0197C1.1504 32.3956 8.60443 39.8496 17.9804 40.9955C18.3442 41.0398 18.6646 40.7536 18.6646 40.3869V35.6023C18.6646 33.097 22.3355 33.13 22.3355 35.5504V40.3869C22.3355 40.7536 22.6559 41.0398 23.0197 40.9955C32.3957 39.8497 39.8496 32.3956 40.9955 23.0197C41.0398 22.656 40.7536 22.3356 40.3869 22.3356ZM28.6625 14.933L23.3747 20.2209C23.5386 21.9307 22.1953 23.3884 20.5 23.3884C18.9048 23.3884 17.6116 22.0952 17.6116 20.5C17.6116 18.8051 19.0691 17.4613 20.7791 17.6253L26.0669 12.3375C27.7816 10.6227 30.3799 13.216 28.6625 14.933Z" fill="url(#paint0_linear_19_659)"/>
<defs>
<linearGradient id="paint0_linear_19_659" x1="-0.819998" y1="53.71" x2="41" y2="-9.84" gradientUnits="userSpaceOnUse">
<stop stop-color="#FBEDD1"/>
<stop offset="0.577716" stop-color="#F7A300"/>
<stop offset="1" stop-color="#F96800"/>
</linearGradient>
</defs>
</svg>
