<svg width="41" height="37" viewBox="0 0 41 37" fill="none" xmlns="http://www.w3.org/2000/svg">
<path d="M38.4375 17.1786V13.2143C38.4375 11.7546 37.2901 10.5714 35.875 10.5714H7.6875C6.27428 10.5714 5.125 9.38611 5.125 7.92857C5.125 6.47104 6.27428 5.28571 7.6875 5.28571H35.875C37.2901 5.28571 38.4375 4.10238 38.4375 2.64286C38.4375 1.18334 37.2901 0 35.875 0H7.6875C3.44832 0 0 3.55654 0 7.92857V10.5714V31.7143C0 34.6335 2.29472 37 5.125 37H35.875C37.2901 37 38.4375 35.8168 38.4375 34.3571V30.3929C39.8526 30.3929 41 29.2097 41 27.75V19.8214C41 18.3617 39.8526 17.1786 38.4375 17.1786ZM34.5938 26.4286C33.1786 26.4286 32.0312 25.2454 32.0312 23.7857C32.0312 22.326 33.1786 21.1429 34.5938 21.1429C36.0089 21.1429 37.1562 22.326 37.1562 23.7857C37.1562 25.2454 36.0089 26.4286 34.5938 26.4286Z" fill="black"/>
<path d="M38.4375 17.1786V13.2143C38.4375 11.7546 37.2901 10.5714 35.875 10.5714H7.6875C6.27428 10.5714 5.125 9.38611 5.125 7.92857C5.125 6.47104 6.27428 5.28571 7.6875 5.28571H35.875C37.2901 5.28571 38.4375 4.10238 38.4375 2.64286C38.4375 1.18334 37.2901 0 35.875 0H7.6875C3.44832 0 0 3.55654 0 7.92857V10.5714V31.7143C0 34.6335 2.29472 37 5.125 37H35.875C37.2901 37 38.4375 35.8168 38.4375 34.3571V30.3929C39.8526 30.3929 41 29.2097 41 27.75V19.8214C41 18.3617 39.8526 17.1786 38.4375 17.1786ZM34.5938 26.4286C33.1786 26.4286 32.0312 25.2454 32.0312 23.7857C32.0312 22.326 33.1786 21.1429 34.5938 21.1429C36.0089 21.1429 37.1562 22.326 37.1562 23.7857C37.1562 25.2454 36.0089 26.4286 34.5938 26.4286Z" fill="url(#paint0_linear_19_651)"/>
<defs>
<linearGradient id="paint0_linear_19_651" x1="-0.819998" y1="48.47" x2="35.2618" y2="-12.2877" gradientUnits="userSpaceOnUse">
<stop stop-color="#FBEDD1"/>
<stop offset="0.577716" stop-color="#F7A300"/>
<stop offset="1" stop-color="#F96800"/>
</linearGradient>
</defs>
</svg>
