<svg width="30" height="30" viewBox="0 0 30 30" fill="none" xmlns="http://www.w3.org/2000/svg">
<path fill-rule="evenodd" clip-rule="evenodd" d="M4.74485 30H25.2892C26.0743 30 26.7286 29.869 27.5137 29.476C28.4297 29.083 28.9532 28.4279 29.2149 27.9039C29.2149 27.9039 29.2149 27.7729 29.3457 27.7729C29.7383 27.1179 30 26.3319 30 25.4148C30 24.6288 29.8691 23.8428 29.3457 23.0568L16.391 0.786028C16.1293 0.262011 15.6059 -1.90735e-06 14.9516 -1.90735e-06C14.4282 -1.90735e-06 13.9047 0.262011 13.5122 0.786028L0.819174 23.0568C0.557463 23.5808 0.0340395 24.2358 0.0340395 25.2838C-0.0968162 26.2009 0.164895 26.9869 0.557462 27.7729C0.950029 28.559 1.60431 29.214 2.5203 29.476C3.30543 30 4.22142 30 4.74485 30ZM13.3813 26.8559H4.74485C4.22142 26.8559 3.95971 26.8559 3.82886 26.7249C3.56714 26.5939 3.43629 26.4629 3.30543 26.2009C3.17458 26.0699 3.17458 25.8079 3.17458 25.5459C3.17458 25.4148 3.30543 25.2838 3.56714 24.7598L13.3813 7.72926V26.8559ZM16.5219 26.8559V7.59826L26.4669 24.7598C26.5978 25.0218 26.5978 25.2838 26.5978 25.5459C26.5978 25.8079 26.5978 26.0699 26.4669 26.2009C26.336 26.3319 26.336 26.4629 26.2052 26.4629L26.0743 26.5939C25.8126 26.7249 25.5509 26.7249 25.1583 26.7249H16.5219V26.8559Z" fill="white"/>
</svg>
